<svg width="20" height="21" viewBox="0 0 20 21" fill="none" xmlns="http://www.w3.org/2000/svg">
<g clip-path="url(#clip0_4820_1940)">
<path fill-rule="evenodd" clip-rule="evenodd" d="M10 20.5899C15.523 20.5899 20 16.1129 20 10.5899C20 5.06685 15.523 0.589844 10 0.589844C4.477 0.589844 0 5.06685 0 10.5899C0 16.1129 4.477 20.5899 10 20.5899ZM13.536 7.05385C13.7238 6.86634 13.9783 6.7611 14.2437 6.76129C14.5091 6.76148 14.7635 6.86707 14.951 7.05485C15.1385 7.24262 15.2437 7.49719 15.2436 7.76255C15.2434 8.02792 15.1378 8.28234 14.95 8.46985L9.297 14.1229L9.293 14.1269C9.20035 14.2201 9.09019 14.294 8.96885 14.3445C8.84752 14.3949 8.71741 14.4209 8.586 14.4209C8.45459 14.4209 8.32448 14.3949 8.20315 14.3445C8.08181 14.294 7.97165 14.2201 7.879 14.1269L7.875 14.1229L5.05 11.2979C4.95449 11.2056 4.87831 11.0953 4.8259 10.9733C4.77349 10.8513 4.7459 10.72 4.74475 10.5873C4.7436 10.4545 4.7689 10.3228 4.81918 10.1999C4.86946 10.077 4.94371 9.96535 5.0376 9.87145C5.1315 9.77756 5.24315 9.70331 5.36605 9.65303C5.48894 9.60274 5.62062 9.57744 5.7534 9.5786C5.88618 9.57975 6.0174 9.60734 6.1394 9.65975C6.26141 9.71215 6.37175 9.78834 6.464 9.88385L8.586 12.0049L13.536 7.05485V7.05385Z" fill="#FFBD5A"/>
</g>
<defs>
<clipPath id="clip0_4820_1940">
<rect width="20" height="21" fill="white"/>
</clipPath>
</defs>
</svg>
